<?xml version="1.0" encoding="UTF-8"?>
<svg width="752pt" height="752pt" version="1.1" viewBox="0 0 752 752" xmlns="http://www.w3.org/2000/svg">
 <defs>
  <clipPath id="a">
   <path d="m152 139.21h460.79v412.79h-460.79z"/>
  </clipPath>
 </defs>
 <path d="m459.82 382.63c4.7344 0 6.1562 0.94531 10.891 5.2109 0.47266 0.47266 1.4219 0.94531 1.8945 1.8945 36.465 32.676 53.516 70.562 55.41 126.92-8.9961 9.4727-63.934 54.934-143.97 55.41h-1.8945c-71.039 0-131.18-41.203-142.07-52.094 0.94531-42.148 16.102-100.4 54.934-129.76 1.4219-0.94531 2.3672-1.8945 3.7891-2.8398 6.1562-4.7344 6.1562-4.7344 9.4727-4.7344 8.5234 0 20.363 22.258 20.836 39.309-0.94531 2.3672-1.8945 5.2109-1.8945 10.418 0 9.9453 10.418 11.84 17.051 12.785 4.7344 0.94531 10.418 1.8945 13.734 4.2617 8.9961 6.6289 12.785 11.84 13.262 13.734 1.4219 5.2109 1.8945 9.4727 1.8945 12.312 0.47266 4.2617 1.4219 13.734 10.891 13.734 2.8398 0 5.6836-0.94531 7.5781-3.3164 3.3164-3.3164 2.8398-7.1055 2.8398-9.4727 0-1.8945-0.47266-5.6836 2.3672-11.84 2.8398-6.6289 7.5781-11.84 12.312-14.207 6.6289-2.8398 11.367-4.7344 15.156-5.6836 7.1055-2.3672 14.68-5.2109 15.156-14.207 0-4.2617-0.94531-7.5781-1.8945-8.9961 3.3164-18.945 11.367-38.836 22.258-38.836m0-9.4727c-18.941 0-28.414 28.414-32.203 47.359-0.47266 2.8398 1.8945 3.7891 1.8945 9.4727 0 3.7891-7.5781 3.7891-24.625 11.367-8.5234 3.7891-14.207 11.84-17.051 18.941-5.6836 13.734-0.94531 18.941-3.7891 18.941-1.8945 0-0.94531-7.5781-3.7891-18.941-1.4219-4.7344-7.5781-11.84-17.051-18.941-9.4727-6.6289-26.52-5.2109-26.52-9.4727 0-6.1562 1.8945-6.1562 1.8945-9.4727-0.47266-18.941-13.262-49.254-30.309-49.254-7.5781 0-9.9453 2.3672-18.941 9.4727-44.043 33.148-58.723 97.555-59.199 140.18 0 4.7344 67.723 58.723 151.55 58.723h1.8945c90.926-0.94531 153.44-57.305 153.44-62.512-1.8945-64.406-22.73-104.19-58.723-136.39-6.1602-5.6836-9-9.4727-18.473-9.4727z"/>
 <path d="m393.52 537.96h-19.418v41.676h19.418z"/>
 <path d="m440.88 460.3h-18.945v113.66l18.945-1.8945z"/>
 <path d="m469.3 378.84v126.92h18.941v-107.98z"/>
 <path d="m514.76 435.67v100.4l18.941-13.258v-24.629z"/>
 <path d="m482.56 518.07v5.6836c0 9.9453-2.3672 13.734-5.6836 19.418-1.8945 2.8398-4.7344 4.7344-7.1055 5.6836-4.2617-1.8945-8.9961-4.7344-9.9453-6.1562-3.7891-4.7344-5.6836-7.5781-5.6836-18.941v-5.6875h28.418m9.4688-9.4688h-47.359v15.156c0 14.207 3.3164 18.941 7.5781 24.625 3.7891 5.2109 17.051 10.418 17.051 10.418s9.4727-1.8945 15.156-10.418c4.2617-6.1562 7.5781-11.84 7.5781-24.625-0.003906-4.7383-0.003906-15.156-0.003906-15.156z"/>
 <path d="m461.72 494.4h13.262v7.5781h-13.262z" fill-rule="evenodd"/>
 <path d="m480.66 484.93h-24.625c-1.8945 0-3.7891 1.8945-3.7891 3.7891v18.941c0 1.8945 1.8945 3.7891 3.7891 3.7891h24.625c1.8945 0 3.7891-1.8945 3.7891-3.7891v-18.941c0-2.3672-1.8945-3.7891-3.7891-3.7891z"/>
 <path d="m383.58 494.4c-3.3164 0-5.6836 2.3672-5.6836 5.6836 0 3.3164 2.3672 5.6836 5.6836 5.6836s5.6836-2.3672 5.6836-5.6836c0-3.3164-2.3672-5.6836-5.6836-5.6836z"/>
 <path d="m404.89 492.5h-7.5781v37.887h-26.992v-37.887h-7.5781v45.461h42.148z"/>
 <path d="m383.58 513.34c-3.3164 0-5.6836 2.3672-5.6836 5.6836 0 3.3164 2.3672 5.6836 5.6836 5.6836s5.6836-2.3672 5.6836-5.6836c0-3.3164-2.3672-5.6836-5.6836-5.6836z"/>
 <path d="m492.03 501.97h-47.355v9.4727h47.355z"/>
 <path d="m446.57 414.36c-0.47266 0-1.4219 0-1.8945 0.47266-2.8438 0.94531-2.3672 3.7891-2.3672 3.7891s6.6289 15.629 7.5781 20.836c1.8945 10.891 1.8945 18.941 1.8945 18.941s-18.941-0.94531-24.625-1.8945c-1.4219 0-2.8398-0.47266-4.2617-0.47266-8.9961 0-13.262 4.2617-14.68 6.1562-2.3672 1.8945-0.94531 5.6836 1.4219 5.6836 0.47266 0 0.94531 0 1.4219-0.47266 4.2617-2.8398 6.6289-3.7891 9.9453-3.7891h1.4219c5.2109 0.47266 26.52 2.3672 34.098 2.3672 1.4219 0 2.3672 0 2.8398-0.47266 0.94531-2.3672 1.4219-15.156-1.8945-28.414-3.7891-15.156-7.5781-20.836-7.5781-20.836-0.007813-0.003906-0.95312-1.8945-3.3203-1.8945z"/>
 <path d="m320.12 414.36c-2.3672 0-3.7891 2.3672-3.7891 2.3672s-3.7891 5.6836-7.5781 20.836c-3.3164 12.785-2.8398 25.574-1.8945 27.941 0 0 0.94531 0.47266 2.8398 0.47266 7.5781 0 28.414-1.8945 34.098-2.3672h1.4219c3.3164 0 5.6836 0.94531 9.9453 3.7891 0.47266 0.47266 0.94531 0.47266 1.4219 0.47266 2.3672 0 3.7891-3.7891 1.4219-5.6836-1.4219-1.4219-5.6836-6.1562-14.68-6.1562-1.4219 0-2.8398 0-4.2617 0.47266-5.6836 0.47656-24.625 1.8984-24.625 1.8984s0-8.0508 1.8945-18.941c0.94531-5.2109 7.5781-20.363 7.5781-20.363s0.47266-2.8398-2.3672-3.7891c-0.003907-0.47656-0.94922-0.94922-1.4258-0.94922z"/>
 <path d="m345.69 460.3h-17.047v111.77h17.047z"/>
 <path d="m300.23 378.84-17.047 13.258v162.91l17.047 7.5781z"/>
 <path d="m254.77 435.67-17.051 43.57v47.359l17.051 13.258z"/>
 <path d="m360.85 367.48-3.7891 3.7891h11.367l3.7852-3.7891z" fill-rule="evenodd"/>
 <path d="m372.21 367.48h-11.363l-3.7891 3.7891h11.367z"/>
 <g clip-path="url(#a)">
  <path transform="matrix(4.7358 0 0 4.7358 139.21 139.21)" d="m71.9 28.4c0-0.40004-2.1-0.40004-2.1998-0.70028-0.099805-0.70028 0.099805-1.7998 0-2.5001-0.80009-4.5003-1.2001-9.7-3.3002-12.4-0.80009-0.9997-2.9001-0.19961-3.8-0.9997-3.0997-2.5001-5.9998-5.0999-10.6-5.3004-6.6003-0.19961-13.9 1.6002-16.6 8.5997-0.80009 2.1998-1.6002 4.3997-1.7998 8.1997 0 0.70028 0 3.7002-0.099805 4.3997-0.099804 0.49985-1.5004 0.19961-1.7998 0.70028-0.59965 0.9997-0.49985 2.4003-0.49985 3.4 0 2.0002 0.40004 4.3997 1.2001 6.3001 0.19961 0.49985 2.0002 0.49985 2.1 0.9997 0.89989 3.2004 1.7998 5.5 3.3002 7.7996 0.70028 1.1003 1.5004 2.1998 2.4003 3.0997 0.40004 0.49985 0.89989 0.89989 1.2999 1.2999 0.19961 0.19961 0.59965 0.40004 0.80009 0.70028 0.19961 0.40004 0.19961 0.40004 0.19961 0.80009-0.099804 2.0002 0.099805 2.9001 0.80009 3.7002 0.80009 0.89989 1.1003 1.2999 2.1 1.7 0.80009 0.30024 1.7 0.49985 2.5999 0.59965 1.1003 0 2.1 0.19961 2.9999-0.40004 0.80009-0.49985 1.2001-1.2001 1.5004-2.0002 0.099804-0.30024 0.099804-0.70028 0.40004-0.89989 0.30024-0.30024 0.89989-0.19961 1.2999-0.30024 1.3997-0.099804 2.9001-0.80009 4.1002-1.3997 1.2999-0.70028 2.4003-1.5004 3.4998-2.5001 3.4998-3.2004 5.8002-7.6 6.8997-12.1 0.099804-0.40004 2.1-0.59965 2.1-0.9997 0.40004-2.0002 1.2001-4.2 1.2001-6.3999 0.09898-1.1985-0.00165-2.298-0.10146-3.3983z" fill="none" stroke="#000" stroke-miterlimit="10" stroke-width="2"/>
 </g>
 <path d="m437.57 237.71c-0.47266 0-1.4219 0-1.4219 0.47266-6.6289 3.7891-25.574 14.207-51.621 20.363-14.68 3.7891-28.414 4.7344-40.254 4.7344h-8.0508-3.3164c-5.6836 0-9.4727 0.94531-11.84 3.7891-0.94531 0.94531-2.3672 1.4219-3.7891 7.5781-1.4219 6.6289 0 16.102-3.7891 18.941-0.47266 0.47266-1.4219 0.94531-1.8945 0.94531s-1.4219-0.47266-1.8945-0.94531c-2.3672-2.8398-3.3164-13.734-5.6836-20.836-1.4219-4.2617-4.2617-7.5781-5.2109-7.5781-0.47266 0 0 7.5781 0 7.5781h-3.7891s0.47266 3.3164 1.8945 5.6836c1.8945 3.3164 2.8398 7.5781 5.6836 17.051 2.3672 7.1055 5.6836 7.5781 8.5234 7.5781h0.94531 2.3672c2.3672 0 5.6836-0.47266 7.1055-3.7891 2.3672-5.2109 2.3672-16.102 3.7891-20.836 0.94531-3.3164 3.3164-7.5781 7.5781-7.5781h15.629c11.367 0 21.785-0.47266 37.414-3.7891 20.836-4.7344 35.52-10.891 49.254-18.941h0.47266c0.94531 0 1.8945 0.47266 1.8945 3.3164-0.47266 3.3164-2.3672 8.0508-1.8945 13.734 0 6.1562 0.94531 14.207 5.6836 20.836 5.6836 8.0508 11.367 11.367 13.262 11.367-0.94531 0 9.4727-2.3672 1.8945-7.5781-4.2617-2.8398-4.7344-3.7891-7.5781-7.5781-3.3164-4.2617-4.7344-7.1055-5.6836-13.262v-5.6836c2.8398-14.207 1.8945-18.941 1.8945-18.941s-0.47266-4.2617-3.7891-5.6836c-1.8906-0.94922-2.8359-0.94922-3.7852-0.94922z"/>
 <path d="m365.11 365.11h0.94531 3.3164 1.4219 4.2617 1.8945c-3.3164 3.7891-7.5781 8.0508-10.418 10.891l-6.6289 6.6289c-3.7891 4.2617-8.9961 10.891-8.9961 22.73-3.7891-3.7891-5.6836-8.5234-5.6836-14.207 0-4.2617 1.4219-8.5234 3.7891-11.84 2.8398-3.7891 9.4727-10.891 14.207-14.207 0.94141 0.47656 1.418 0.47656 1.8906 0.003906m-0.47266-9.4727h-1.4219c-1.4219 0-2.3672 0.94531-3.7891 1.8945-6.1562 3.7891-13.734 12.312-17.051 16.574-3.3164 4.7344-5.6836 10.891-5.6836 17.523 0 16.574 12.312 30.309 34.098 30.309h0.94531c10.891 0-9.9453-1.4219-10.418-15.156-0.47266-9.9453 3.7891-14.68 7.5781-18.941 1.8945-2.3672 16.102-16.102 20.836-22.73 0.94531-0.94531-3.3164-9.4727-3.7891-9.4727h-0.94531-9.4727-4.7344-1.4219c-2.3633 0.47266-3.7852 0-4.7305 0z"/>
 <path transform="matrix(4.7358 0 0 4.7358 139.21 139.21)" d="m52.8 55.4c0 1.8781-1.5226 3.4-3.4 3.4-1.8781 0-3.4-1.5218-3.4-3.4 0-1.8773 1.5218-3.4 3.4-3.4 1.8773 0 3.4 1.5226 3.4 3.4" stroke="#000" stroke-miterlimit="10" stroke-width="2"/>
</svg>
